<?xml version="1.0" encoding="utf-8"?>
<!-- Generator: Adobe Illustrator 16.2.1, SVG Export Plug-In . SVG Version: 6.00 Build 0)  -->
<!DOCTYPE svg PUBLIC "-//W3C//DTD SVG 1.1//EN" "http://www.w3.org/Graphics/SVG/1.1/DTD/svg11.dtd">
<svg version="1.1" id="Layer_1" xmlns="http://www.w3.org/2000/svg" xmlns:xlink="http://www.w3.org/1999/xlink" x="0px" y="0px"
	 width="32px" height="32px" viewBox="0 0 32 32" enable-background="new 0 0 32 32" xml:space="preserve">
<path fill="#FFFFFF" d="M25.815-0.001H6.184c-3.411,0-6.185,2.773-6.185,6.184v6.533v13.1c0,3.411,2.774,6.186,6.185,6.186h19.633
	c3.411,0,6.186-2.774,6.186-6.186V12.715V6.182C32.001,2.771,29.227-0.001,25.815-0.001z M27.534,3.743l0.707-0.002v0.704v4.721
	l-5.405,0.017l-0.019-5.423L27.534,3.743z M11.377,12.771c1.025-1.418,2.687-2.348,4.567-2.348c1.88,0,3.543,0.93,4.567,2.348
	c0.666,0.926,1.065,2.058,1.065,3.284c0,3.105-2.529,5.631-5.633,5.631c-3.106,0-5.633-2.525-5.633-5.631
	C10.312,14.829,10.71,13.697,11.377,12.771z M28.827,25.871c0,1.693-1.376,3.067-3.067,3.067H6.128
	c-1.691,0-3.067-1.374-3.067-3.067v-13.1h4.777c-0.413,1.016-0.644,2.124-0.644,3.284c0,4.823,3.925,8.751,8.75,8.751
	c4.825,0,8.751-3.928,8.751-8.751c0-1.161-0.234-2.269-0.646-3.284h4.778V25.871z"/>
</svg>
