<?xml version="1.0" encoding="utf-8"?>
<!-- Generator: Adobe Illustrator 19.0.0, SVG Export Plug-In . SVG Version: 6.00 Build 0)  -->
<svg version="1.1" id="Layer_1" xmlns="http://www.w3.org/2000/svg" xmlns:xlink="http://www.w3.org/1999/xlink" x="0px" y="0px"
	 viewBox="0 0 100 100" style="enable-background:new 0 0 100 100;" xml:space="preserve">
<polygon fill="currentColor" points="50,2 65.4,33.5 100.1,38.5 74.9,63 80.9,97.6 50,81.3 "/>
<polygon fill="color" points="50,2 34.6,33.5 0,38.5 25.1,63 19.1,97.6 50,81.3 "/>
<path fill="#ffffff" stroke="#ffffff" d="M49.8,13.3l11,22.4L62,38l2.6,0.4L89.3,42L71.4,59.4l-1.9,1.8l0.4,2.6l4.2,24.6L52.1,76.8l-2.3-1.2
		l-2.3,1.2L25.3,88.4l4.2-24.6l0.4-2.6l-1.9-1.8L10.2,42l24.7-3.6l2.6-0.4l1.2-2.4L49.8,13.3 M49.8,2L34.2,33.5l-34.7,5L24.6,63
		l-5.9,34.6l31.1-16.3l31.1,16.3L74.9,63L100,38.5l-34.7-5L49.8,2L49.8,2z"/>
</svg>
