<?xml version="1.0" encoding="utf-8"?>
<!-- Generator: Adobe Illustrator 20.1.0, SVG Export Plug-In . SVG Version: 6.00 Build 0)  -->
<svg version="1.1"
	 id="svg2" inkscape:version="0.48.4 r9939" sodipodi:docname="untappd-2016.svg" xmlns:cc="http://creativecommons.org/ns#" xmlns:dc="http://purl.org/dc/elements/1.1/" xmlns:inkscape="http://www.inkscape.org/namespaces/inkscape" xmlns:rdf="http://www.w3.org/1999/02/22-rdf-syntax-ns#" xmlns:sodipodi="http://sodipodi.sourceforge.net/DTD/sodipodi-0.dtd" xmlns:svg="http://www.w3.org/2000/svg"
	 xmlns="http://www.w3.org/2000/svg" xmlns:xlink="http://www.w3.org/1999/xlink" x="0px" y="0px" viewBox="0 0 1252 1252"
	 style="enable-background:new 0 0 1252 1252;" xml:space="preserve">
<g id="layer1" transform="translate(253.95276,99.818909)" inkscape:groupmode="layer" inkscape:label="Layer 1">
	<path fill="#fff" d="M680.3,957.4
		c92.2,38.9,226.4-51.6,218.2-151L620.6,404.7l-95.7-52.4l-214.3-230l-3.9-16.9l-14.6-4.2l-2.1-16.8c-38.8,3.7-64.5,21.5-80.8,55.9
		l15.3,7.7l0.5,14l14.4,9.6l143.2,279.2l19.6,105L680.3,957.4z"/>
	<path fill="#fff" d="M-158.9,806.8
		c-5.2,99.9,125.5,195.3,216.2,153.8l283.2-398.1l16.7-107.8L500.6,175l14.6-9.4l-1-15.2l15.1-7.7c-16.7-35.2-42.2-53.3-80-56.9
		l-2,17l-12.9,5.3l-4.1,16.8L216.4,354.6l-92,54.2L-158.9,806.8z"/>
</g>
</svg>
